<svg width="43" height="43" viewBox="0 0 43 43" fill="none" xmlns="http://www.w3.org/2000/svg">
<path d="M43.0001 21.633C43.0176 15.9132 40.7623 10.4208 36.7303 6.36382C32.6983 2.30686 27.2199 0.0177422 21.5001 0C15.7803 0.0177422 10.3019 2.30686 6.26988 6.36382C2.23787 10.4208 -0.0174299 15.9132 0.000101449 21.633C-0.0107792 26.77 1.80948 31.7426 5.1342 35.6586C8.45892 39.5745 13.0704 42.1774 18.1411 43V27.886H12.6821V21.633H18.1411V16.867C18.1411 11.445 21.3511 8.451 26.2621 8.451C27.8746 8.47342 29.4833 8.61446 31.0751 8.873V14.2H28.3641C25.6931 14.2 24.8641 15.868 24.8641 17.578V21.636H30.8271L29.8741 27.889H24.8641V43C29.9339 42.1763 34.5442 39.573 37.8679 35.6572C41.1916 31.7413 43.0112 26.7692 43.0001 21.633Z" fill="white"/>
</svg>
