<svg width="42" height="44" viewBox="0 0 42 44" fill="none" xmlns="http://www.w3.org/2000/svg">
<path d="M21.0631 3.929C26.6531 3.929 27.3151 3.952 29.5231 4.056C30.8534 4.07282 32.17 4.3268 33.4111 4.806C34.327 5.16003 35.1505 5.71777 35.8191 6.437C36.5193 7.14755 37.054 8.00393 37.3851 8.945C37.8472 10.2456 38.0908 11.6138 38.1061 12.994C38.2061 15.294 38.2281 15.983 38.2281 21.806C38.2281 27.629 38.2061 28.318 38.1061 30.618C38.0908 31.9982 37.8472 33.3664 37.3851 34.667C37.0533 35.6077 36.5187 36.464 35.8191 37.175C35.1509 37.8948 34.3274 38.4526 33.4111 38.806C32.17 39.2852 30.8534 39.5392 29.5231 39.556C27.3161 39.656 26.6531 39.683 21.0631 39.683C15.4731 39.683 14.8101 39.661 12.6031 39.556C11.2728 39.5392 9.95617 39.2852 8.71508 38.806C7.79911 38.452 6.97568 37.8942 6.30708 37.175C5.60684 36.4645 5.07212 35.6081 4.74108 34.667C4.279 33.3664 4.03537 31.9982 4.02008 30.618C3.92008 28.318 3.89808 27.629 3.89808 21.806C3.89808 15.983 3.92008 15.294 4.02008 12.994C4.03537 11.6138 4.279 10.2456 4.74108 8.945C5.0731 8.00417 5.60808 7.14792 6.30808 6.437C6.97604 5.71772 7.79924 5.16025 8.71508 4.807C9.95617 4.3278 11.2728 4.07382 12.6031 4.057C14.8111 3.957 15.4731 3.93 21.0631 3.93V3.929ZM21.0631 0.001C15.3771 0.001 14.6631 0.026 12.4311 0.133C10.6908 0.169349 8.97052 0.511915 7.34908 1.145C5.94219 1.69907 4.67576 2.55838 3.64108 3.661C2.56962 4.76061 1.74644 6.07721 1.22708 7.522C0.616619 9.22156 0.287956 11.0094 0.254075 12.815C0.151075 15.141 0.127075 15.884 0.127075 21.806C0.127075 27.728 0.151075 28.471 0.253075 30.8C0.287603 32.6046 0.616599 34.3914 1.22708 36.09C1.74655 37.5353 2.57009 38.8522 3.64208 39.952C4.67701 41.0541 5.94339 41.913 7.35008 42.467C8.9698 43.1003 10.6884 43.4435 12.4271 43.481C14.6601 43.587 15.3731 43.613 21.0591 43.613C26.7451 43.613 27.4591 43.588 29.6911 43.481C31.4315 43.4441 33.1518 43.1008 34.7731 42.467C36.1799 41.9132 37.4463 41.0543 38.4811 39.952C39.5529 38.8521 40.3764 37.5352 40.8961 36.09C41.5066 34.3905 41.8353 32.6026 41.8691 30.797C41.9691 28.471 41.9951 27.728 41.9951 21.806C41.9951 15.884 41.9711 15.141 41.8691 12.815C41.8353 11.0094 41.5066 9.22154 40.8961 7.522C40.3781 6.07718 39.5563 4.76024 38.4861 3.66C37.4511 2.55792 36.1848 1.69898 34.7781 1.145C33.1562 0.512119 31.4357 0.169236 29.6951 0.132C27.4621 0.025 26.7491 0 21.0631 0V0.001Z" fill="white"/>
<path d="M21.063 10.1851C15.125 10.1851 10.312 15.3851 10.312 21.8061C10.312 28.2271 15.125 33.4271 21.063 33.4271C27.001 33.4271 31.813 28.2271 31.813 21.8061C31.813 15.3851 27 10.1851 21.063 10.1851ZM21.063 29.3491C19.5461 29.4673 18.0288 29.1255 16.7092 28.3682C15.3895 27.6109 14.3289 26.4733 13.6657 25.104C13.0024 23.7347 12.7675 22.1972 12.9914 20.6922C13.2154 19.1873 13.8879 17.7849 14.9211 16.668C15.9543 15.5512 17.3002 14.7717 18.7832 14.4315C20.2662 14.0913 21.8173 14.2061 23.234 14.7609C24.6507 15.3157 25.8673 16.2848 26.7248 17.5416C27.5823 18.7984 28.041 20.2846 28.041 21.8061C28.113 23.7309 27.4189 25.6057 26.1109 27.0197C24.8029 28.4336 22.9876 29.2713 21.063 29.3491Z" fill="white"/>
<path d="M32.2381 12.614C33.6254 12.614 34.7501 11.4893 34.7501 10.102C34.7501 8.71463 33.6254 7.58997 32.2381 7.58997C30.8507 7.58997 29.7261 8.71463 29.7261 10.102C29.7261 11.4893 30.8507 12.614 32.2381 12.614Z" fill="white"/>
</svg>
