<svg width="50" height="35" viewBox="0 0 50 35" fill="none" xmlns="http://www.w3.org/2000/svg">
<path d="M48.3361 5.336C48.0624 4.30435 47.5225 3.36268 46.7705 2.60524C46.0185 1.8478 45.0807 1.30115 44.0511 1.02C40.2661 4.76837e-07 25.1001 0 25.1001 0C25.1001 0 9.93407 4.76837e-07 6.15107 1.02C5.12087 1.30069 4.1825 1.84713 3.42994 2.60461C2.67738 3.36208 2.13705 4.30399 1.86307 5.336C0.851074 9.142 0.851074 17.085 0.851074 17.085C0.851074 17.085 0.851074 25.027 1.86507 28.834C2.13903 29.8656 2.67913 30.8071 3.4313 31.5644C4.18348 32.3217 5.12136 32.8681 6.15107 33.149C9.93307 34.169 25.0991 34.169 25.0991 34.169C25.0991 34.169 40.2651 34.169 44.0471 33.149C45.0773 32.8683 46.0157 32.3219 46.7682 31.5644C47.5208 30.8069 48.0611 29.865 48.3351 28.833C49.3511 25.027 49.3511 17.085 49.3511 17.085C49.3511 17.085 49.3511 9.142 48.3361 5.336ZM20.1401 24.3V9.874L32.8161 17.085L20.1401 24.3Z" fill="white"/>
</svg>
