<svg width="49" height="47" viewBox="0 0 49 47" fill="none" xmlns="http://www.w3.org/2000/svg">
<g filter="url(#filter0_d_1_833)">
<path d="M24.9182 3.32373L30.1435 13.9007C30.1858 13.9864 30.2484 14.0605 30.3259 14.1166C30.4033 14.1727 30.4932 14.2091 30.5879 14.2227L42.2717 15.9227C42.3807 15.9386 42.4831 15.9846 42.5673 16.0556C42.6515 16.1265 42.7141 16.2195 42.7482 16.3242C42.7822 16.4288 42.7863 16.5409 42.7599 16.6477C42.7336 16.7545 42.6779 16.8519 42.5991 16.9287L34.1445 25.1617C34.0759 25.2284 34.0246 25.3108 33.9949 25.4017C33.9653 25.4927 33.9582 25.5895 33.9743 25.6837L35.9703 37.3087C35.9888 37.4171 35.9767 37.5285 35.9352 37.6303C35.8937 37.7321 35.8246 37.8203 35.7356 37.885C35.6466 37.9497 35.5413 37.9882 35.4316 37.9963C35.3218 38.0044 35.212 37.9817 35.1145 37.9307L24.6639 32.4417C24.5792 32.3972 24.4849 32.374 24.3891 32.374C24.2934 32.374 24.1991 32.3972 24.1143 32.4417L13.6638 37.9307C13.5662 37.9817 13.4564 38.0044 13.3467 37.9963C13.2369 37.9882 13.1316 37.9497 13.0426 37.885C12.9537 37.8203 12.8845 37.7321 12.843 37.6303C12.8016 37.5285 12.7894 37.4171 12.8079 37.3087L14.8039 25.6837C14.8201 25.5895 14.8131 25.4927 14.7834 25.4017C14.7538 25.3108 14.7024 25.2284 14.6337 25.1617L6.18217 16.9247C6.10337 16.8479 6.04765 16.7505 6.02131 16.6437C5.99496 16.5369 5.99902 16.4248 6.03307 16.3202C6.06711 16.2155 6.12979 16.1225 6.21398 16.0516C6.29817 15.9806 6.40052 15.9346 6.5095 15.9187L18.1943 14.2227C18.289 14.209 18.3789 14.1725 18.4563 14.1165C18.5337 14.0604 18.5963 13.9863 18.6388 13.9007L23.8641 3.32373C23.9134 3.22636 23.9887 3.14455 24.0818 3.0874C24.1748 3.03025 24.2819 3 24.3911 3C24.5003 3 24.6074 3.03025 24.7005 3.0874C24.7935 3.14455 24.8689 3.22636 24.9182 3.32373Z" fill="#F3CC30"/>
</g>
<path d="M24.5978 5.79785L19.893 14.9099C19.7714 15.145 19.5926 15.3458 19.3728 15.4937C19.1531 15.6416 18.8996 15.7317 18.6357 15.7559L8.41138 16.6878L19.2143 17.1878C19.5487 17.2035 19.8794 17.1124 20.1586 16.9278C20.4377 16.7432 20.6508 16.4745 20.7669 16.1609L24.5978 5.79785Z" fill="#F7DB5E"/>
<path d="M12.6999 35.9427L12.4677 37.2958C12.4503 37.4051 12.4634 37.5171 12.5058 37.6194C12.5481 37.7217 12.618 37.8103 12.7076 37.8755C12.7972 37.9406 12.9031 37.9796 13.0136 37.9883C13.1241 37.997 13.2348 37.9751 13.3336 37.9248L23.9023 32.3737C23.988 32.3291 24.0833 32.3057 24.1801 32.3057C24.2768 32.3057 24.3721 32.3291 24.4578 32.3737L35.0265 37.9248C35.1253 37.9751 35.236 37.997 35.3465 37.9883C35.457 37.9796 35.5629 37.9406 35.6525 37.8755C35.7422 37.8103 35.812 37.7217 35.8543 37.6194C35.8967 37.5171 35.9099 37.4051 35.8924 37.2958L33.8744 25.5388C33.8582 25.4435 33.8654 25.3457 33.8952 25.2538C33.925 25.1619 33.9766 25.0785 34.0455 25.0108L42.5962 16.6848C42.6745 16.6065 42.7297 16.5082 42.7556 16.4006C42.7815 16.2931 42.7771 16.1804 42.743 16.0752C42.7088 15.9699 42.6461 15.8762 42.5619 15.8043C42.4777 15.7324 42.3752 15.6851 42.2658 15.6678L38.3079 15.0928C31.9074 26.5698 22.1044 32.6127 12.6999 35.9427Z" fill="#EDBD31"/>
<defs>
<filter id="filter0_d_1_833" x="0.00415039" y="0" width="48.7729" height="46.9979" filterUnits="userSpaceOnUse" color-interpolation-filters="sRGB">
<feFlood flood-opacity="0" result="BackgroundImageFix"/>
<feColorMatrix in="SourceAlpha" type="matrix" values="0 0 0 0 0 0 0 0 0 0 0 0 0 0 0 0 0 0 127 0" result="hardAlpha"/>
<feOffset dy="3"/>
<feGaussianBlur stdDeviation="3"/>
<feColorMatrix type="matrix" values="0 0 0 0 0 0 0 0 0 0 0 0 0 0 0 0 0 0 0.22 0"/>
<feBlend mode="normal" in2="BackgroundImageFix" result="effect1_dropShadow_1_833"/>
<feBlend mode="normal" in="SourceGraphic" in2="effect1_dropShadow_1_833" result="shape"/>
</filter>
</defs>
</svg>
