<svg width="46" height="37" viewBox="0 0 46 37" fill="none" xmlns="http://www.w3.org/2000/svg">
<path d="M14.4581 36.5821C31.4431 36.5821 40.7331 22.5101 40.7331 10.3071C40.7331 9.90707 40.7241 9.50907 40.7061 9.11307C42.5133 7.80504 44.0733 6.18579 45.3131 4.33107C43.6289 5.07743 41.8424 5.5672 40.0131 5.78407C41.9396 4.62931 43.3809 2.81408 44.0691 0.676066C42.256 1.7525 40.272 2.51077 38.2031 2.91807C36.811 1.43719 34.9696 0.456492 32.9639 0.127785C30.9582 -0.200921 28.9001 0.140696 27.1082 1.09975C25.3162 2.05881 23.8904 3.58182 23.0514 5.43302C22.2124 7.28422 22.007 9.36037 22.4671 11.3401C18.7958 11.1562 15.2042 10.2023 11.9255 8.54012C8.64681 6.87795 5.75441 4.54477 3.4361 1.69207C2.25476 3.72465 1.89262 6.13111 2.42342 8.42135C2.95422 10.7116 4.33806 12.7134 6.2931 14.0191C4.82663 13.9742 3.39239 13.5778 2.1111 12.8631C2.1111 12.9011 2.1111 12.9401 2.1111 12.9801C2.11163 15.1122 2.84972 17.1784 4.20015 18.8283C5.55057 20.4782 7.43018 21.6101 9.5201 22.0321C8.72671 22.2474 7.90821 22.3564 7.0861 22.3561C6.50345 22.3556 5.92216 22.2997 5.3501 22.1891C5.9397 24.0237 7.08811 25.6281 8.63462 26.7778C10.1811 27.9275 12.0484 28.565 13.9751 28.6011C10.7035 31.1698 6.66264 32.5628 2.5031 32.5561C1.76791 32.5561 1.03333 32.5133 0.303101 32.4281C4.52381 35.1451 9.43848 36.5874 14.4581 36.5821Z" fill="white"/>
</svg>
